<?xml version="1.0" encoding="utf-8"?>
<!-- Generator: Adobe Illustrator 21.0.2, SVG Export Plug-In . SVG Version: 6.00 Build 0)  -->
<svg version="1.1" id="Layer_1" xmlns="http://www.w3.org/2000/svg" xmlns:xlink="http://www.w3.org/1999/xlink" x="0px" y="0px"
	 viewBox="0 0 270 38" style="enable-background:new 0 0 270 38;" xml:space="preserve">
<style type="text/css">
	.st0{fill:#FFFFFF;}
</style>
<path class="st0" d="M76.6,7.8c1.3,1,1.9,2.5,1.9,4.3c0,1.5-0.4,2.7-1.2,3.6c-0.8,0.9-1.9,1.6-3.3,1.8c1.8,0.2,3.2,0.9,4.2,1.9
	s1.5,2.4,1.5,4c0,2-0.8,3.6-2.2,4.7c-1.5,1.1-3.6,1.7-6.2,1.7h-9.7V6.3h9.6C73.5,6.3,75.3,6.8,76.6,7.8z M75.5,15.7
	c1-0.8,1.6-2,1.6-3.5s-0.5-2.6-1.6-3.4c-1-0.8-2.5-1.2-4.4-1.2H63v9.3h8.2C73,17,74.5,16.5,75.5,15.7z M76.4,27.1
	c1.2-0.9,1.9-2.2,1.9-3.8c0-1.6-0.6-2.8-1.9-3.7c-1.2-0.9-3-1.3-5.3-1.3H63v10.1h8.2C73.4,28.4,75.2,28,76.4,27.1z M92.7,6.3h15.2
	v1.4H94.1V17h12.2v1.4H94.1v10h14.2v1.4H92.7V6.3z M137,7.7c1.9,1.1,3.3,2.5,4.4,4.3c1.1,1.8,1.6,3.8,1.6,6s-0.5,4.1-1.6,6
	c-1.1,1.8-2.6,3.3-4.4,4.4c-1.9,1.1-3.9,1.6-6.1,1.6c-2.2,0-4.2-0.5-6.1-1.6s-3.3-2.5-4.4-4.4c-1.1-1.8-1.6-3.8-1.6-6s0.5-4.1,1.6-6
	c1.1-1.8,2.6-3.3,4.4-4.3c1.9-1.1,3.9-1.6,6.1-1.6S135.1,6.6,137,7.7z M125.5,8.9c-1.7,0.9-3,2.2-3.9,3.8s-1.5,3.4-1.5,5.3
	s0.5,3.7,1.5,5.3c1,1.6,2.3,2.9,3.9,3.9c1.7,1,3.4,1.4,5.4,1.4c1.9,0,3.7-0.5,5.4-1.4c1.7-1,3-2.2,3.9-3.9c1-1.6,1.5-3.4,1.5-5.3
	s-0.5-3.7-1.5-5.3s-2.3-2.9-3.9-3.8c-1.7-0.9-3.4-1.4-5.4-1.4S127.1,8,125.5,8.9z M171.9,18.3h1.3v8.6c-1.1,1-2.4,1.7-3.8,2.3
	c-1.5,0.5-3,0.8-4.5,0.8c-2.2,0-4.2-0.5-6.1-1.6c-1.9-1.1-3.3-2.5-4.4-4.4c-1.1-1.8-1.6-3.8-1.6-6s0.5-4.1,1.7-6
	c1.1-1.8,2.6-3.3,4.5-4.3c1.9-1.1,3.9-1.6,6.1-1.6c1.6,0,3,0.3,4.5,0.8s2.7,1.3,3.8,2.3l-0.8,1c-1-0.9-2.1-1.6-3.4-2.1
	c-1.3-0.5-2.6-0.8-4-0.8c-1.9,0-3.8,0.5-5.4,1.4c-1.7,1-3,2.2-3.9,3.8c-1,1.6-1.5,3.4-1.5,5.3s0.5,3.7,1.5,5.3
	c1,1.6,2.3,2.9,3.9,3.9c1.7,1,3.5,1.4,5.4,1.4c1.3,0,2.5-0.2,3.7-0.6s2.3-1,3.3-1.8L171.9,18.3z M203.2,29.8l-5.5-8
	c-0.6,0.1-1.2,0.1-2,0.1h-6.9v7.8h-1.4V6.3h8.3c2.9,0,5.2,0.7,6.7,2c1.6,1.3,2.4,3.2,2.4,5.7c0,2-0.5,3.6-1.5,4.9s-2.4,2.2-4.3,2.6
	l5.9,8.2C204.9,29.7,203.2,29.8,203.2,29.8z M195.7,20.6c2.5,0,4.4-0.6,5.7-1.7s2-2.7,2-4.8s-0.7-3.7-2-4.7
	c-1.3-1.1-3.2-1.7-5.7-1.7h-6.9v12.9H195.7z M236,29.8l-3.1-6.7h-13.8l-3,6.7h-1.6l10.7-23.5h1.5l10.8,23.5H236z M219.8,21.7h12.5
	L226,7.9C226,7.9,219.8,21.7,219.8,21.7z M264,7.9c1.8,1,3.3,2.5,4.4,4.3s1.6,3.8,1.6,5.9s-0.5,4.1-1.6,5.9s-2.5,3.2-4.4,4.3
	c-1.9,1-3.9,1.6-6.1,1.6h-9.3V6.3h9.4C260.1,6.3,262.2,6.8,264,7.9z M263.3,27c1.6-0.9,2.9-2.2,3.9-3.8c1-1.6,1.4-3.3,1.4-5.2
	c0-1.9-0.5-3.7-1.4-5.2c-1-1.6-2.3-2.8-3.9-3.8c-1.6-0.9-3.4-1.4-5.4-1.4H250v20.8h8C259.9,28.4,261.7,27.9,263.3,27z"/>
<g>
	<path class="st0" d="M36,33.5c-2.5,0-3.8,0.8-5,1.4c-1.1,0.6-2,1.1-4,1.1s-2.9-0.5-4-1.1c-1.2-0.6-2.5-1.4-5-1.4s-3.8,0.8-5,1.4
		c-1,0.6-2,1.1-4,1.1s-2.9-0.5-4-1.1c-1.2-0.6-2.5-1.4-5-1.4v1.9c2,0,2.9,0.5,4,1.1C5.2,37.2,6.5,38,9,38s3.8-0.8,5-1.4
		c1.1-0.6,2-1.1,4-1.1s2.9,0.5,4,1.1c1.2,0.6,2.5,1.4,5,1.4s3.8-0.8,5-1.4c1.1-0.6,2-1.1,4-1.1s2.9,0.5,4,1.1c1.2,0.6,2.5,1.4,5,1.4
		v-2c-2,0-2.9-0.5-4-1.1C39.8,34.2,38.5,33.5,36,33.5z M41,30.4c-0.1,0-0.1-0.1-0.2-0.1L39,22.6c0.6-0.6,1-1.4,1-2.3v-7.1l-3-3.7
		l-3.1,3.7v3.7h-3.7v-6.1l3.4-2.7V0h-5.9v2.9h-2.2V0h-6v2.9h-2.2V0h-5.9v8.1l3.3,2.7v6.1h-3.6v-3.7l-3-3.7L5,13.2v7.1
		c0,0.9,0.4,1.7,1,2.3L4.3,30c-1-0.5-2.3-1-4.3-1v1.9c2,0,2.9,0.5,4,1.1c1.2,0.6,2.5,1.4,5,1.4s3.8-0.8,5-1.4c1.1-0.6,2-1.1,4-1.1
		s2.9,0.5,4,1.1c1.2,0.6,2.5,1.4,5,1.4s3.8-0.8,5-1.4c1.1-0.6,2-1.1,4-1.1c1.5,0,2.3,0.3,3.1,0.7v0.1h0.1c0.3,0.1,0.5,0.3,0.8,0.4
		c1.2,0.6,2.5,1.4,5,1.4v-1.9C43,31.5,42.1,31,41,30.4z M35.8,13.9l1.2-1.4l1.2,1.4v6.4c0,0.6-0.5,1.2-1.2,1.2
		c-0.6,0-1.2-0.5-1.2-1.2V13.9z M13.4,1.9h2.1v2.9h6V1.9h2.1v2.9h6V1.9h2.1v5.3l-2.2,1.7h-14l-2.2-1.7L13.4,1.9L13.4,1.9z
		 M16.7,10.8h11.6v6.1H16.7C16.7,16.9,16.7,10.8,16.7,10.8z M6.9,13.9L8,12.5l1.2,1.4v6.4c0,0.6-0.5,1.2-1.2,1.2
		c-0.6,0-1.2-0.5-1.2-1.2L6.9,13.9L6.9,13.9z M20.8,29.3v-4.5c0-0.9,0.8-1.7,1.7-1.7s1.7,0.8,1.7,1.7V31L23,30.4
		C22.4,30,21.7,29.6,20.8,29.3z M36,29c-2.5,0-3.8,0.8-5,1.4c-1.1,0.6-2,1.1-4,1.1c-0.3,0-0.6,0-0.9-0.1v-6.6c0-2-1.6-3.6-3.6-3.6
		s-3.6,1.6-3.6,3.6V29H18c-2.5,0-3.8,0.8-5,1.4c-1.1,0.6-2,1.1-4,1.1c-1.3,0-2.2-0.3-3-0.6l1.8-7.6h0.3c1.7,0,3.1-1.4,3.1-3.1v-1.5
		h22.7v1.5c0,1.7,1.4,3.1,3.1,3.1h0.3l1.4,6C37.9,29.1,37.1,29,36,29z"/>
</g>
</svg>
