<?xml version="1.0" encoding="utf-8"?>
<!-- Generator: Adobe Illustrator 21.0.2, SVG Export Plug-In . SVG Version: 6.00 Build 0)  -->
<svg version="1.1" id="Layer_1" xmlns="http://www.w3.org/2000/svg" xmlns:xlink="http://www.w3.org/1999/xlink" x="0px" y="0px"
	 viewBox="0 0 1041.6 146.5" style="enable-background:new 0 0 1041.6 146.5;" xml:space="preserve">
<g>
	<path d="M295.4,30.1c5,3.9,7.5,9.5,7.5,16.5c0,5.6-1.5,10.3-4.6,13.9c-3.1,3.6-7.4,6-12.9,7c7,0.9,12.4,3.3,16.3,7.3
		c3.8,4,5.8,9.2,5.8,15.6c0,7.7-2.9,13.7-8.6,18s-13.7,6.4-24,6.4h-37.4V24.2h37.1C283.5,24.2,290.5,26.2,295.4,30.1z M291.4,60.7
		c4-3.1,6-7.6,6-13.4c0-5.6-2-10-6-13.1c-4-3.1-9.7-4.7-16.9-4.7h-31.5v35.8h31.5C281.7,65.4,287.4,63.8,291.4,60.7z M294.8,104.5
		c4.8-3.4,7.2-8.3,7.2-14.6c0-6.1-2.4-10.9-7.2-14.2c-4.8-3.3-11.6-5-20.3-5h-31.5v38.8h31.5C283.2,109.6,290,107.9,294.8,104.5z"/>
	<path d="M357.5,24.2H416v5.3H363v36.2h47.2v5.4H363v38.4h54.8v5.3h-60.2V24.2z"/>
	<path d="M528.3,29.8c7.2,4.1,12.9,9.7,17.1,16.7c4.2,7,6.3,14.7,6.3,23c0,8.3-2.1,16-6.3,23c-4.2,7.1-9.9,12.7-17.1,16.8
		c-7.2,4.2-15.1,6.2-23.5,6.2c-8.5,0-16.3-2.1-23.5-6.2c-7.2-4.2-12.9-9.8-17.1-16.8c-4.2-7-6.3-14.7-6.3-23c0-8.3,2.1-16,6.3-23
		c4.2-7,9.9-12.6,17.1-16.7c7.2-4.1,15.1-6.2,23.5-6.2C513.3,23.6,521.1,25.6,528.3,29.8z M484.1,34.4c-6.4,3.6-11.4,8.5-15.1,14.7
		c-3.7,6.2-5.6,13-5.6,20.3c0,7.4,1.9,14.1,5.6,20.4c3.7,6.2,8.8,11.2,15.1,14.9c6.4,3.7,13.3,5.5,20.7,5.5c7.4,0,14.3-1.8,20.7-5.5
		c6.4-3.7,11.4-8.6,15.1-14.9c3.7-6.2,5.6-13,5.6-20.4c0-7.4-1.9-14.1-5.6-20.3c-3.7-6.2-8.8-11.1-15.1-14.7
		c-6.4-3.6-13.3-5.4-20.7-5.4C497.3,28.9,490.4,30.7,484.1,34.4z"/>
	<path d="M662.9,70.4h4.9v33.1c-4.2,3.7-9.2,6.6-14.8,8.8c-5.6,2.1-11.4,3.2-17.4,3.2c-8.5,0-16.3-2.1-23.5-6.2
		c-7.2-4.2-12.9-9.8-17.1-16.8c-4.2-7-6.3-14.7-6.3-23c0-8.3,2.1-16,6.4-23c4.2-7,10-12.6,17.2-16.7c7.2-4.1,15.1-6.2,23.5-6.2
		c6,0,11.7,1.1,17.2,3.2c5.5,2.1,10.4,5.1,14.7,8.9l-3.2,4c-3.8-3.5-8.2-6.1-13.1-8c-4.9-1.9-10.1-2.9-15.6-2.9
		c-7.5,0-14.5,1.8-20.8,5.5c-6.4,3.7-11.4,8.6-15.2,14.8c-3.8,6.2-5.6,13-5.6,20.3c0,7.4,1.9,14.3,5.6,20.5
		c3.7,6.2,8.8,11.2,15.2,14.9c6.4,3.7,13.4,5.5,20.9,5.5c4.9,0,9.7-0.8,14.4-2.5c4.7-1.6,8.9-4,12.6-7V70.4z"/>
	<path d="M783.9,114.9l-21.4-30.8c-2.2,0.3-4.7,0.5-7.7,0.5h-26.6v30.2h-5.5V24.2h32c11.2,0,19.9,2.6,26,7.8s9.1,12.5,9.1,22.1
		c0,7.7-1.9,14-5.7,19c-3.8,5-9.3,8.4-16.6,10.2l22.7,31.7H783.9z M754.9,79.4c9.5,0,16.8-2.2,22-6.5c5.1-4.3,7.7-10.6,7.7-18.7
		c0-8-2.6-14.1-7.7-18.3c-5.1-4.2-12.5-6.4-22-6.4h-26.7v49.8H754.9z"/>
	<path d="M910.4,114.9l-11.8-25.8h-53.1l-11.7,25.8h-6L869,24.2h5.8l41.5,90.7H910.4z M847.8,83.7h48.3l-24.3-53.2L847.8,83.7z"/>
	<path d="M1018.4,30.3c7.1,4,12.8,9.5,16.9,16.5c4.2,7,6.2,14.6,6.2,22.9c0,8.2-2.1,15.8-6.2,22.8c-4.2,7-9.8,12.5-17,16.5
		c-7.2,4-15,6-23.5,6h-35.9V24.2H995C1003.4,24.2,1011.3,26.2,1018.4,30.3z M1015.5,104.2c6.3-3.6,11.2-8.4,14.9-14.5
		c3.7-6.1,5.5-12.8,5.5-20c0-7.4-1.8-14.1-5.5-20.2c-3.7-6.1-8.7-10.9-14.9-14.5c-6.3-3.6-13.2-5.4-20.7-5.4h-30.5v80.1H995
		C1002.4,109.6,1009.3,107.8,1015.5,104.2z"/>
</g>
<g>
	<g>
		<path d="M138.9,129.2c-9.7,0-14.7,2.9-19.2,5.4c-4.2,2.4-7.8,4.4-15.5,4.4c-7.7,0-11.3-2.1-15.5-4.4c-4.5-2.5-9.5-5.4-19.2-5.4
			s-14.7,2.9-19.2,5.4c-4.2,2.4-7.8,4.4-15.5,4.4s-11.3-2.1-15.5-4.4c-4.5-2.5-9.5-5.4-19.2-5.4v7.4c7.7,0,11.3,2.1,15.5,4.4
			c4.5,2.5,9.5,5.4,19.2,5.4s14.7-2.9,19.2-5.4c4.2-2.4,7.8-4.4,15.5-4.4s11.3,2.1,15.5,4.4c4.5,2.5,9.5,5.4,19.2,5.4
			c9.7,0,14.7-2.9,19.2-5.4c4.2-2.4,7.8-4.4,15.5-4.4c7.7,0,11.3,2.1,15.5,4.4c4.5,2.5,9.5,5.4,19.2,5.4v-7.4
			c-7.7,0-11.3-2.1-15.5-4.4C153.7,132.1,148.6,129.2,138.9,129.2z"/>
	</g>
	<g>
		<path d="M158.1,117.1c-0.2-0.1-0.4-0.2-0.6-0.4l-7-29.7c2.5-2.2,4-5.4,4-8.9V50.8l-11.9-14.3l-11.9,14.3v14.3h-14.1V41.6h0.1
			l13.1-10.4V0H107v11.1h-8.5V0H75.5v11.1H67V0H44.1v31.2l12.9,10.3v23.7H43V50.8L31.1,36.5L19.2,50.8v27.3c0,3.5,1.6,6.7,4,8.9
			l-6.7,28.5c-3.9-2-8.7-3.9-16.5-3.9v7.4c7.7,0,11.3,2.1,15.5,4.4c4.5,2.5,9.5,5.4,19.2,5.4s14.7-2.9,19.2-5.4
			c4.2-2.4,7.8-4.4,15.5-4.4s11.3,2.1,15.5,4.4c4.5,2.5,9.5,5.4,19.2,5.4c9.7,0,14.7-2.9,19.2-5.4c4.2-2.4,7.8-4.4,15.5-4.4
			c5.6,0,9,1.1,12.1,2.6l0.1,0.3l0.4-0.1c1,0.5,2,1.1,3,1.6c4.5,2.5,9.5,5.4,19.2,5.4v-7.4C166,121.5,162.3,119.5,158.1,117.1z
			 M138.1,53.5l4.5-5.4l4.5,5.4v24.7c0,2.5-2,4.5-4.5,4.5c-2.5,0-4.5-2-4.5-4.5V53.5z M51.5,7.4h8.1v11.1h23.3V7.4H91v11.1h23.3V7.4
			h8.1v20.3l-8.3,6.6H59.8l-8.3-6.6V7.4z M64.5,41.6h44.7v23.5H64.5V41.6z M26.5,53.5l4.5-5.4l4.5,5.4v24.7c0,2.5-2,4.5-4.5,4.5h0
			c-2.5,0-4.5-2-4.5-4.5V53.5z M80.3,113.2V95.8c0-3.6,2.9-6.5,6.5-6.5c3.6,0,6.5,2.9,6.5,6.5v23.8c-1.7-0.7-3.1-1.6-4.7-2.4
			C86.3,115.7,83.7,114.3,80.3,113.2z M138.9,111.7c-9.7,0-14.7,2.9-19.2,5.4c-4.2,2.4-7.8,4.4-15.5,4.4c-1.3,0-2.4-0.1-3.4-0.2
			V95.8c0-7.7-6.2-13.9-13.9-13.9s-13.9,6.2-13.9,13.9v16c-1.1-0.1-2.2-0.1-3.5-0.1c-9.7,0-14.7,2.9-19.2,5.4
			c-4.2,2.4-7.8,4.4-15.5,4.4c-5.2,0-8.6-1-11.5-2.3L30.1,90c0.3,0,0.7,0,1,0c6.6,0,11.9-5.3,11.9-11.9v-5.6h87.7v5.6
			c0,6.6,5.3,11.9,11.9,11.9c0.3,0,0.7,0,1,0l5.4,23C146.3,112.2,143,111.7,138.9,111.7z"/>
	</g>
</g>
</svg>
